<svg id="Group_13202" data-name="Group 13202" xmlns="http://www.w3.org/2000/svg" width="238.077" height="178.496" viewBox="0 0 238.077 178.496">
 
 
 
  <g id="Group_13184" data-name="Group 13184" transform="translate(163.682 77.642)">
    <g id="Group_13182" data-name="Group 13182">
      <g id="Group_13177" data-name="Group 13177" transform="translate(23.233)">
        <path id="Path_71527" data-name="Path 71527" d="M1761.5,647.354c-6.736-1.187-14.026-20.821-1.481-27.4s16.773-10.065,19.4-25.387,11.54-8.049,9.531.919,11.382,7.853,14.176,12.131c4.842,7.412-5.868,8.6-12,12.815s4.812,7.106.459,14.245S1772.988,649.377,1761.5,647.354Z" transform="translate(-1753.181 -585.671)" fill="#32b5c6"/>
        <g id="Group_13176" data-name="Group 13176" transform="translate(7.63 29.139)">
          <path id="Path_71528" data-name="Path 71528" d="M1763.033,655.651c.626-.736,13.374-22.106,21.08-32.357" transform="translate(-1763.033 -623.294)" fill="none" stroke="#fff" stroke-miterlimit="10" stroke-width="1.177"/>
          <line id="Line_137" data-name="Line 137" y1="3.813" x2="16.418" transform="translate(6.954 17.415)" fill="none" stroke="#fff" stroke-miterlimit="10" stroke-width="1.177"/>
          <line id="Line_138" data-name="Line 138" y1="9.835" x2="0.337" transform="translate(13.628 0.954)" fill="none" stroke="#fff" stroke-miterlimit="10" stroke-width="1.177"/>
        </g>
      </g>
      <g id="Group_13179" data-name="Group 13179" transform="translate(0 17.62)">
        <path id="Path_71529" data-name="Path 71529" d="M1756.84,662.327s-3.779-7.377,2.674-12.107,9.307-10.807,5.626-16.392-13.132-2.1-17.127-4.774-2.278-8.385-5.554-14.566c-4.391-8.283-12.889-6.1-14.877-4.818s-5.513,5.187-.9,12.7,1.213,10.15-2.457,16.048,2.762,8.191,13.205,10.183,12.247,14.819,12.247,14.819l7.164-1.1" transform="translate(-1723.184 -608.421)" fill="#4dd0e1"/>
        <g id="Group_13178" data-name="Group 13178" transform="translate(6.342 8.068)">
          <path id="Path_71530" data-name="Path 71530" d="M1757.023,672.091s1.569-27.826-21.249-53.253" transform="translate(-1732.365 -618.838)" fill="none" stroke="#fff" stroke-miterlimit="10" stroke-width="1.593"/>
          <path id="Path_71531" data-name="Path 71531" d="M1751.614,654.594s-5.95-8.193-20.242-6.789" transform="translate(-1731.372 -625.334)" fill="none" stroke="#fff" stroke-miterlimit="10" stroke-width="1.593"/>
          <path id="Path_71532" data-name="Path 71532" d="M1759.479,658s-2.926-11.789,9.029-15.6" transform="translate(-1737.638 -624.152)" fill="none" stroke="#fff" stroke-miterlimit="10" stroke-width="1.593"/>
        </g>
      </g>
      <g id="Group_13181" data-name="Group 13181" transform="translate(32.375 35.222)">
        <path id="Path_71533" data-name="Path 71533" d="M1788.884,663.641c11.962,3.025,12.251-7.4,4.922-13.212-4.581-3.633,4.772-5.573,8.393-9.105,6.224-6.071-3.757-13.7-8.934-8.384s-8.387,6.95-12.159,7.414-14.415.579-13.5,7.35c.573,4.22-3.076,7.825-2.578,12.054C1776.093,656.016,1782.652,662.065,1788.884,663.641Z" transform="translate(-1764.984 -631.149)" fill="#60e3f4"/>
        <g id="Group_13180" data-name="Group 13180" transform="translate(0.047 10.256)">
          <path id="Path_71534" data-name="Path 71534" d="M1765.045,662.744s16.017-12.022,29.147-18.353" transform="translate(-1765.045 -644.391)" fill="none" stroke="#fff" stroke-miterlimit="10" stroke-width="1.494"/>
          <line id="Line_139" data-name="Line 139" y1="9.221" x2="1.501" transform="translate(12.288 0.579)" fill="none" stroke="#fff" stroke-miterlimit="10" stroke-width="1.494"/>
          <line id="Line_140" data-name="Line 140" x2="16.987" y2="0.05" transform="translate(9.012 11.982)" fill="none" stroke="#fff" stroke-miterlimit="10" stroke-width="1.494"/>
        </g>
      </g>
    </g>
    <g id="Group_13183" data-name="Group 13183" transform="translate(20.838 61.358)">
      <path id="Path_71535" data-name="Path 71535" d="M1775.206,688.142h-17.5l-4.075-17.5h25.654Z" transform="translate(-1750.886 -666.191)" fill="#39306c"/>
      <rect id="Rectangle_3782" data-name="Rectangle 3782" width="31.134" height="7.043" fill="#4b4583"/>
    </g>
  </g>
  <g id="Group_13185" data-name="Group 13185" transform="translate(21.246 84.601)">
    <path id="Path_71536" data-name="Path 71536" d="M1555.366,651.225c1.245-3.087,4.241-4.021,5.707-6.809,2.625-4.989-1.789-6.275-2.313-9.591-.7-4.414,2.4-4.016,4-6.7,1.881-3.161-1.3-6.9.65-9.9,4.854-7.46,12.752.736,17.9,2.46,3.154,1.056,7.871,1.5,10.352-.506,3.277-2.649,6.543-8.784,3.073-12.326-4.889-4.992-3.1-7.548,2.19-8.812,2.341-.56,3.413-2.343.815-4.38,3.948,5.7-9.219.51-11.562,4.38-1.627,2.688.38,4.276.946,6.342,1.448,5.288-2.185,9.839-9.764,4.543-4.357-3.045-3.99-8.468-8.612-9.849-4.319-1.291-9.341,2.578-10.93,7.769-1.572,5.138-3.438,7.772-8.976,7.188-6.578-.695-11.652,3.382-8.71,9.27,2.609,5.219,9.834,2.254,13.5,5.246,4.066,3.321,2.8,7.9-2.461,12.185-1.634,1.333-4.146,3.321-3.5,5.591.42,1.472,3.046,3.81,4.737,3.871Z" transform="translate(-1539.276 -594.656)" fill="#fff" opacity="0.74"/>
    <path id="Path_71537" data-name="Path 71537" d="M1566.513,669.372h-1.406v-1.9a1.466,1.466,0,0,0-1.466-1.466h-16.65a1.466,1.466,0,0,0-1.466,1.466v11.643a7.982,7.982,0,0,0,7.982,7.983h3.618a7.98,7.98,0,0,0,7.545-5.4h1.843a2.55,2.55,0,0,0,2.55-2.55v-7.23A2.55,2.55,0,0,0,1566.513,669.372Zm.919,9.78a.922.922,0,0,1-.92.92h-1.468a8.018,8.018,0,0,0,.063-.958V671h1.406a.922.922,0,0,1,.92.92Z" transform="translate(-1540.685 -610.745)" fill="#03647e"/>
    <path id="Path_71538" data-name="Path 71538" d="M1562.969,670.138a10.752,10.752,0,0,0-.844-4.134h-15.135a1.466,1.466,0,0,0-1.466,1.466v11.643a7.94,7.94,0,0,0,1.01,3.881c.229.008.455.029.686.029C1555.919,683.023,1562.969,677.254,1562.969,670.138Z" transform="translate(-1540.685 -610.745)" fill="#0081a7"/>
  </g>
  <g id="Group_13186" data-name="Group 13186" transform="translate(0 160.952)">
    <path id="Path_71539" data-name="Path 71539" d="M1735.621,713.511H1524.766a4.084,4.084,0,0,1-4.084-4.084h0a4.084,4.084,0,0,1,4.084-4.084h210.855a4.083,4.083,0,0,1,4.083,4.084h0A4.083,4.083,0,0,1,1735.621,713.511Z" transform="translate(-1513.838 -695.967)" fill="#39306c"/>
    <path id="Path_71540" data-name="Path 71540" d="M1738.794,704.761H1517.607a5.762,5.762,0,0,1-5.762-5.762h0a5.762,5.762,0,0,1,5.762-5.761h221.187a5.762,5.762,0,0,1,5.762,5.761h0A5.762,5.762,0,0,1,1738.794,704.761Z" transform="translate(-1511.845 -693.237)" fill="#221b4c"/>
  </g>
  <g id="Group_13191" data-name="Group 13191" transform="translate(176.195 36.299)">
    <circle id="Ellipse_776" data-name="Ellipse 776" cx="14.962" cy="14.962" r="14.962" fill="#4b4583"/>
    <circle id="Ellipse_777" data-name="Ellipse 777" cx="11.666" cy="11.666" r="11.666" transform="translate(3.296 3.296)" fill="#fff"/>
    <g id="Group_13187" data-name="Group 13187" transform="translate(14.962 7.947)">
      <line id="Line_141" data-name="Line 141" y1="7.015" fill="none" stroke="#4b4583" stroke-linecap="round" stroke-linejoin="round" stroke-width="0.978"/>
      <line id="Line_142" data-name="Line 142" x2="4.289" y2="4.289" transform="translate(0 7.015)" fill="none" stroke="#4b4583" stroke-linecap="round" stroke-linejoin="round" stroke-width="0.978"/>
    </g>
    <g id="Group_13190" data-name="Group 13190" transform="translate(4.617 4.612)">
      <g id="Group_13189" data-name="Group 13189">
        <g id="Group_13188" data-name="Group 13188">
          <line id="Line_143" data-name="Line 143" y1="1.385" transform="translate(10.345 19.312)" fill="none" stroke="#4b4583" stroke-linecap="round" stroke-linejoin="round" stroke-width="0.684"/>
          <line id="Line_144" data-name="Line 144" x1="0.692" y1="1.201" transform="translate(14.825 18.111)" fill="none" stroke="#4b4583" stroke-linecap="round" stroke-linejoin="round" stroke-width="0.684"/>
          <line id="Line_145" data-name="Line 145" x1="1.201" y1="0.692" transform="translate(18.104 14.832)" fill="none" stroke="#4b4583" stroke-linecap="round" stroke-linejoin="round" stroke-width="0.684"/>
          <line id="Line_146" data-name="Line 146" x1="1.392" transform="translate(19.305 10.352)" fill="none" stroke="#4b4583" stroke-linecap="round" stroke-linejoin="round" stroke-width="0.684"/>
          <line id="Line_147" data-name="Line 147" x1="1.194" y2="0.692" transform="translate(18.111 5.18)" fill="none" stroke="#4b4583" stroke-linecap="round" stroke-linejoin="round" stroke-width="0.684"/>
          <line id="Line_148" data-name="Line 148" x1="0.692" y2="1.194" transform="translate(14.825 1.392)" fill="none" stroke="#4b4583" stroke-linecap="round" stroke-linejoin="round" stroke-width="0.684"/>
          <line id="Line_149" data-name="Line 149" y1="1.392" transform="translate(10.345)" fill="none" stroke="#4b4583" stroke-linecap="round" stroke-linejoin="round" stroke-width="0.684"/>
          <line id="Line_150" data-name="Line 150" x1="0.693" y1="1.201" transform="translate(5.172 1.392)" fill="none" stroke="#4b4583" stroke-linecap="round" stroke-linejoin="round" stroke-width="0.684"/>
          <line id="Line_151" data-name="Line 151" x1="1.194" y1="0.692" transform="translate(1.385 5.18)" fill="none" stroke="#4b4583" stroke-linecap="round" stroke-linejoin="round" stroke-width="0.684"/>
          <line id="Line_152" data-name="Line 152" x1="1.385" transform="translate(0 10.352)" fill="none" stroke="#4b4583" stroke-linecap="round" stroke-linejoin="round" stroke-width="0.684"/>
          <line id="Line_153" data-name="Line 153" x1="1.201" y2="0.692" transform="translate(1.385 14.832)" fill="none" stroke="#4b4583" stroke-linecap="round" stroke-linejoin="round" stroke-width="0.684"/>
          <line id="Line_154" data-name="Line 154" x1="0.693" y2="1.201" transform="translate(5.172 18.111)" fill="none" stroke="#4b4583" stroke-linecap="round" stroke-linejoin="round" stroke-width="0.684"/>
        </g>
      </g>
    </g>
    <circle id="Ellipse_778" data-name="Ellipse 778" cx="0.677" cy="0.677" r="0.677" transform="translate(14.285 14.285)" fill="#4b4583"/>
  </g>
  <g id="Group_13193" data-name="Group 13193" transform="translate(55.257 30.444)">
    <path id="Path_71541" data-name="Path 71541" d="M1610.686,529.453a16.122,16.122,0,1,0-3.1,25.217,2.39,2.39,0,0,1,1.913-.231l4.076,1.214a.409.409,0,0,0,.508-.508l-1.214-4.076a2.393,2.393,0,0,1,.235-1.918A16.125,16.125,0,0,0,1610.686,529.453Z" transform="translate(-1583.19 -524.731)" fill="#0081a7"/>
    <g id="Group_13192" data-name="Group 13192" transform="translate(6.972 9.068)">
      <line id="Line_155" data-name="Line 155" x2="18.271" fill="none" stroke="#fff" stroke-linecap="round" stroke-linejoin="round" stroke-width="1.665"/>
      <line id="Line_156" data-name="Line 156" x2="4.382" transform="translate(13.889 4.701)" fill="none" stroke="#fff" stroke-linecap="round" stroke-linejoin="round" stroke-width="1.665"/>
      <line id="Line_157" data-name="Line 157" x2="9.536" transform="translate(0 4.701)" fill="none" stroke="#fff" stroke-linecap="round" stroke-linejoin="round" stroke-width="1.665"/>
      <line id="Line_158" data-name="Line 158" x2="9.917" transform="translate(8.354 9.403)" fill="none" stroke="#fff" stroke-linecap="round" stroke-linejoin="round" stroke-width="1.665"/>
      <line id="Line_159" data-name="Line 159" x2="4.769" transform="translate(0 9.403)" fill="none" stroke="#fff" stroke-linecap="round" stroke-linejoin="round" stroke-width="1.665"/>
      <line id="Line_160" data-name="Line 160" x2="4.382" transform="translate(13.889 14.104)" fill="none" stroke="#fff" stroke-linecap="round" stroke-linejoin="round" stroke-width="1.665"/>
      <line id="Line_161" data-name="Line 161" x2="9.322" transform="translate(0 14.104)" fill="none" stroke="#fff" stroke-linecap="round" stroke-linejoin="round" stroke-width="1.665"/>
    </g>
  </g>
  <g id="Group_13199" data-name="Group 13199" transform="translate(43.629 24.677)">
    <g id="Group_13196" data-name="Group 13196" transform="translate(56.005)">
      <path id="Path_71542" data-name="Path 71542" d="M1661.774,535.422s-1.63-7.2,5.3-13.379,17.632-5.617,23.5-2.394c7.606,4.176,15.073,15.229,8.249,31.019s24.448,9.27,13.956,30.662-28.625,6.621-35.145,15.484-29.088-14.373-9.807-30.616S1663.233,550.023,1661.774,535.422Z" transform="translate(-1644.931 -517.285)" fill="#221b4c"/>
      <path id="Path_71543" data-name="Path 71543" d="M1655.564,601.476c-7.914,3.373-14.466,23.429-15.077,66.213h17.055S1667.9,596.217,1655.564,601.476Z" transform="translate(-1640.487 -536.208)" fill="#0081a7"/>
      <path id="Path_71544" data-name="Path 71544" d="M1679.391,593.251c9.354-.923,24.6.631,30.079,6.682,1.209,1.334,1.215,3.835.568,7.295-2.289,12.224-12.747,36.415-7.189,63.407h-48.693s4.618-21.092,2.037-27.747c-2.95-7.609-5.5-14.486-2.6-20.843,6.616-14.472.692-20.463,4.882-22.556A60.87,60.87,0,0,1,1679.391,593.251Z" transform="translate(-1643.154 -534.36)" fill="#0081a7"/>
      <path id="Path_71545" data-name="Path 71545" d="M1706.648,633.754c-2.038,11.816-15.723,13.276-22.582,10.968,0,0,9.983,6.044,17.182,2.649,0,0,1.834,5.772-.908,23.925h8.954s0-.036-.006-.092a90.443,90.443,0,0,1,.264-26.833,38.024,38.024,0,0,1,.956-5.525l.014-.05c1.134-5.788,2.554-11.078,3.827-15.7a51.589,51.589,0,0,0,.752-9.312A48.72,48.72,0,0,0,1706.648,633.754Z" transform="translate(-1650.314 -539.046)" fill="#035c77"/>
      <path id="Path_71546" data-name="Path 71546" d="M1704.764,672.317s-8.506,10.448-12.618,7.618c-5.447-3.747-9.929-3.679-13.529-1.53a13.194,13.194,0,0,0-5.161,6.088h29.195l8.5-7.353Z" transform="translate(-1647.922 -552.245)" fill="#f4ae98"/>
      <path id="Path_71547" data-name="Path 71547" d="M1721.468,601.905s7.505,19.6,13.942,35.631c5.2,12.937-26.133,30.567-26.133,30.567l-5.174-6.934,18.042-20L1711.11,617.9s-6.4-12.692,3.315-17.19C1719.828,598.207,1721.468,601.905,1721.468,601.905Z" transform="translate(-1654.832 -535.902)" fill="#0081a7"/>
      <path id="Path_71548" data-name="Path 71548" d="M1690.694,568.673s-1.181,14.862,2.385,18.744c4.584,4.992-3.464,15.756-15.552,23.906,0,0-6.757-7.505-1.46-19.729s.164-19.128.164-19.128Z" transform="translate(-1648.053 -528.873)" fill="#f4ae98"/>
      <path id="Path_71549" data-name="Path 71549" d="M1690.478,555.019c0,10.183-7.174,18.429-13.235,18.429s-13.634-6.772-14.653-19.3c-.826-10.149,4.643-17.566,12.913-17.566S1690.478,544.835,1690.478,555.019Z" transform="translate(-1645.453 -521.636)" fill="#ffb99f"/>
      <path id="Path_71550" data-name="Path 71550" d="M1662.849,532.836c-.852.491-2.7,1.686-4.846,3.117a14.251,14.251,0,0,0-5.7,7.213c-1.474,5.072,2.258,11.5,9.683,9.23s10.973-14.18,17-7.294c7.488,8.557,10.2,3.787,10.2,3.787s-1.5-10.654-9.089-15.449C1676.039,530.871,1669.912,528.761,1662.849,532.836Z" transform="translate(-1643.081 -520.276)" fill="#221b4c"/>
      <g id="Group_13195" data-name="Group 13195" transform="translate(14.922 9.329)">
        <path id="Path_71551" data-name="Path 71551" d="M1702.524,553.9c0,3.322-1.963,6.015-4.386,6.015s-4.386-2.693-4.386-6.015,1.964-6.016,4.386-6.016S1702.524,550.579,1702.524,553.9Z" transform="translate(-1667.421 -533.515)" fill="#f7327a"/>
        <path id="Path_71552" data-name="Path 71552" d="M1676.669,529.668a17.18,17.18,0,0,0-16.915,6.011,19.6,19.6,0,0,1,14.766-2.918c8.961,1.726,15.309,9,15.518,17.084a14.221,14.221,0,0,0,.412-1.616C1692.082,539.758,1685.912,531.448,1676.669,529.668Z" transform="translate(-1659.754 -529.331)" fill="#f7327a"/>
        <g id="Group_13194" data-name="Group 13194" transform="translate(14.551 22.349)">
          <path id="Path_71553" data-name="Path 71553" d="M1694.9,558.187s1.222,13.594-11.274,14.884" transform="translate(-1679.689 -558.187)" fill="none" stroke="#f7327a" stroke-miterlimit="10" stroke-width="1.052"/>
          <path id="Path_71554" data-name="Path 71554" d="M1681.666,578.487h-1.97a1.154,1.154,0,0,1-1.155-1.154h0a1.154,1.154,0,0,1,1.155-1.155h1.97a1.154,1.154,0,0,1,1.154,1.155h0A1.154,1.154,0,0,1,1681.666,578.487Z" transform="translate(-1678.542 -562.244)" fill="#f7327a"/>
        </g>
      </g>
    </g>
    <g id="Group_13198" data-name="Group 13198" transform="translate(0 85.845)">
      <g id="Group_13197" data-name="Group 13197" transform="translate(45.08 46.357)">
        <rect id="Rectangle_3783" data-name="Rectangle 3783" width="74.51" height="4.073" rx="2.036" fill="#39306c"/>
      </g>
      <path id="Path_71555" data-name="Path 71555" d="M1653.186,678.554h-65.5a4.234,4.234,0,0,1-3.979-2.786l-15.273-41.962a4.234,4.234,0,0,1,3.979-5.682h65.5a4.233,4.233,0,0,1,3.978,2.786l15.273,41.962A4.234,4.234,0,0,1,1653.186,678.554Z" transform="translate(-1568.177 -628.124)" fill="#47417f"/>
      <path id="Path_71556" data-name="Path 71556" d="M1571.7,628.4c.246,24.8,33.461,44.861,74.4,44.861,4.014,0,7.952-.2,11.793-.566l-15.209-41.786a4.233,4.233,0,0,0-3.979-2.786h-65.5A4.224,4.224,0,0,0,1571.7,628.4Z" transform="translate(-1568.971 -628.124)" fill="#4b4583"/>
      <path id="Path_71557" data-name="Path 71557" d="M1628.042,658.16a4.958,4.958,0,1,1-4.958-4.958A4.958,4.958,0,0,1,1628.042,658.16Z" transform="translate(-1579.44 -633.779)" fill="#5e5896"/>
    </g>
  </g>
  <g id="Group_13201" data-name="Group 13201" transform="translate(159.855)">
    <path id="Path_71558" data-name="Path 71558" d="M1721.665,488.849a11.694,11.694,0,1,1,2.247,18.292,1.732,1.732,0,0,0-1.388-.168l-2.957.88a.3.3,0,0,1-.368-.369l.88-2.957a1.738,1.738,0,0,0-.169-1.391A11.7,11.7,0,0,1,1721.665,488.849Z" transform="translate(-1718.243 -485.424)" fill="#0081a7"/>
    <g id="Group_13200" data-name="Group 13200" transform="translate(3.309 9.805)">
      <circle id="Ellipse_779" data-name="Ellipse 779" cx="1.888" cy="1.888" r="1.888" fill="#fff"/>
      <circle id="Ellipse_780" data-name="Ellipse 780" cx="1.888" cy="1.888" r="1.888" transform="translate(6.486)" fill="#fff"/>
      <circle id="Ellipse_781" data-name="Ellipse 781" cx="1.888" cy="1.888" r="1.888" transform="translate(12.973)" fill="#fff"/>
    </g>
  </g>
  
</svg>
