<svg id="audi" xmlns="http://www.w3.org/2000/svg" width="40.867" height="14.367" viewBox="0 0 40.867 14.367">
  <path id="Path_57291" data-name="Path 57291" d="M339.184,166a7.184,7.184,0,1,0,7.183,7.184A7.184,7.184,0,0,0,339.184,166Zm0,12.353a5.169,5.169,0,1,1,5.168-5.169A5.175,5.175,0,0,1,339.184,178.353Z" transform="translate(-305.5 -166)" fill="#023047"/>
  <path id="Path_57292" data-name="Path 57292" d="M410.38,166a7.232,7.232,0,0,0-1.008.071c3.49.49,6.808,3.488,6.808,7.113s-3.318,6.623-6.808,7.113A7.184,7.184,0,1,0,410.38,166Z" transform="translate(-376.696 -166)" fill="#023047"/>
  <path id="Path_57293" data-name="Path 57293" d="M229.185,166a7.184,7.184,0,1,0,7.184,7.184A7.183,7.183,0,0,0,229.185,166Zm0,12.353a5.169,5.169,0,1,1,5.169-5.169A5.175,5.175,0,0,1,229.185,178.353Z" transform="translate(-204.282 -166)" fill="#023047"/>
  <path id="Path_57294" data-name="Path 57294" d="M300.381,166a7.232,7.232,0,0,0-1.008.071c3.49.49,6.808,3.488,6.808,7.113s-3.318,6.623-6.808,7.113a7.184,7.184,0,1,0,1.008-14.3Z" transform="translate(-275.477 -166)" fill="#023047"/>
  <path id="Path_57295" data-name="Path 57295" d="M117.184,166a7.184,7.184,0,1,0,7.183,7.184A7.184,7.184,0,0,0,117.184,166Zm0,12.353a5.169,5.169,0,1,1,5.168-5.169A5.175,5.175,0,0,1,117.184,178.353Z" transform="translate(-101.22 -166)" fill="#023047"/>
  <path id="Path_57296" data-name="Path 57296" d="M188.38,166a7.232,7.232,0,0,0-1.008.071c3.49.49,6.808,3.488,6.808,7.113s-3.318,6.623-6.808,7.113A7.184,7.184,0,1,0,188.38,166Z" transform="translate(-172.416 -166)" fill="#023047"/>
  <path id="Path_57297" data-name="Path 57297" d="M7.183,166a7.184,7.184,0,1,0,7.184,7.184A7.183,7.183,0,0,0,7.183,166Zm0,12.353a5.169,5.169,0,1,1,5.169-5.169A5.175,5.175,0,0,1,7.183,178.353Z" transform="translate(0 -166)" fill="#023047"/>
  <path id="Path_57298" data-name="Path 57298" d="M78.38,166a7.232,7.232,0,0,0-1.008.071c3.49.49,6.808,3.488,6.808,7.113s-3.318,6.623-6.808,7.113A7.184,7.184,0,1,0,78.38,166Z" transform="translate(-71.196 -166)" fill="#023047"/>
</svg>
