<svg xmlns="http://www.w3.org/2000/svg" width="74.388" height="22.702" viewBox="0 0 74.388 22.702">
  <path id="path14" d="M72.191,2.247V1.656h.338c.2,0,.415.056.415.283,0,.251-.243.308-.461.308Zm-.374,1.169h.374V2.549h.273l.48.867H73.4l-.559-.908a.553.553,0,0,0,.48-.56c0-.445-.383-.608-.781-.608h-.719V3.416Zm-.835-1.03a1.557,1.557,0,1,1,1.55,1.558A1.554,1.554,0,0,1,70.983,2.386Zm-.292,0A1.849,1.849,0,1,0,72.533.547,1.823,1.823,0,0,0,70.691,2.386ZM43.824,22.153h5.248V.547H43.824ZM41.733.547H35.967l-5,15.613L25.869.547H20.01l8.177,21.606h5.218L41.733.547h0ZM23.194,22.153,14.358.547H9.16L0,22.153H5.773l1.584-4.241h8.365L17.4,22.153Zm-8.909-8.421H8.856L11.6,6.316l2.686,7.416ZM65.354,5.939A5.631,5.631,0,0,0,61.383,4.3c-1.342,0-3.022.459-3.022,2.168,0,1.432,1.283,1.918,3.328,2.562C64.619,9.977,68.4,11.2,68.4,15.5c0,4.973-4,7.2-8.269,7.2a11.392,11.392,0,0,1-8.087-3.112l3.2-3.283A6.843,6.843,0,0,0,60.133,18.4c1.585,0,2.99-.613,2.99-2.35,0-1.648-1.649-2.2-4.486-3.118-2.744-.884-5.522-2.254-5.522-6.157C53.115,1.983,57.447,0,61.474,0a10.816,10.816,0,0,1,7.081,2.653l-3.2,3.286" transform="translate(-0.001 0)" fill="#fff"/>
</svg>
