<svg xmlns="http://www.w3.org/2000/svg" width="120.242" height="25.488" viewBox="0 0 120.242 25.488">
  <g id="Group_12795" data-name="Group 12795" transform="translate(0 0)">
    <path id="Path_69899" data-name="Path 69899" d="M95.285,279.993h12.425v-18.42Z" transform="translate(-79.865 -261.276)" fill="#fff"/>
    <path id="Path_69900" data-name="Path 69900" d="M15.313,260.033V278.75l27.844-18.717Z" transform="translate(-15.313 -260.033)" fill="#fff"/>
  </g>
  <path id="Path_69901" data-name="Path 69901" d="M269.76,260.746a1.967,1.967,0,1,1-1.985,1.976A1.977,1.977,0,0,1,269.76,260.746Zm0,3.647a1.671,1.671,0,1,0-1.672-1.672A1.678,1.678,0,0,0,269.76,264.393Zm-.775-2.795h.784c.417,0,.827.174.827.653a.593.593,0,0,1-.513.6l.6.974h-.487l-.521-.931h-.288v.931h-.4Zm.723.975c.226,0,.486-.061.486-.331,0-.243-.233-.3-.443-.3h-.366v.636Zm-4.79,13.466c-1.562,0-2.289-.762-2.289-2.4V267.36h3v-2.718h-3v-3.888h-3.072v12.883c0,3.261,1.868,5.214,4.878,5.214a9.9,9.9,0,0,0,1.248-.091V276C265.3,276.035,265.079,276.04,264.918,276.04Zm-8.842-9.744a6.567,6.567,0,0,0-4.844-1.97,7.02,7.02,0,0,0-6.885,7.29,6.924,6.924,0,0,0,6.959,7.235,7.3,7.3,0,0,0,5.578-2.78l-2.4-1.681a4.146,4.146,0,0,1-3.18,1.654,3.866,3.866,0,0,1-3.727-3.192h10.306A7.428,7.428,0,0,0,256.076,266.3ZM247.6,270.29a3.811,3.811,0,0,1,3.632-3.157,3.763,3.763,0,0,1,3.6,3.157Zm-7.885-5.648v1.269a5.906,5.906,0,0,0-4.064-1.586,7.268,7.268,0,0,0,0,14.526,5.973,5.973,0,0,0,3.988-1.521s.622,5.314-4.064,5.314a4.827,4.827,0,0,1-4-2.488l-2.456,1.726a7.739,7.739,0,0,0,11.306,2.016,7.048,7.048,0,0,0,2.3-5.592V264.642Zm-4.064,11.377a4.463,4.463,0,0,1,0-8.866,4.458,4.458,0,0,1,0,8.866Zm-15.786,2.832a7.267,7.267,0,0,1,0-14.525,5.971,5.971,0,0,1,3.988,1.521v-5.814h3.072v18.531h-3v-1.3A5.906,5.906,0,0,1,219.87,278.851Zm0-11.676a4.454,4.454,0,0,0,0,8.849,4.448,4.448,0,0,0,0-8.849Zm-8.546,4.65v-7.182h-3.075v7.182c0,2.554-1.307,4.2-3.353,4.2s-3.348-1.649-3.348-4.2v-7.182h-3.08v7.182c0,4.286,2.857,7.026,6.428,7.026S211.324,276.111,211.324,271.824Zm-27.29,6.925V260.032h6.5c2.527,0,5.581,1.332,5.581,4.85a4.449,4.449,0,0,1-1.87,3.954,4.6,4.6,0,0,1,2.847,4.511c0,2.991-2.466,5.4-6.39,5.4Zm6.3-2.806a5.206,5.206,0,0,0,1.928-.293,2.678,2.678,0,0,0,0-4.931,5.118,5.118,0,0,0-2.174-.318H187.16v5.542Zm-.508-8.221a5.375,5.375,0,0,0,2.013-.291,2.179,2.179,0,0,0,1.07-2.2,2.239,2.239,0,0,0-1.262-2.081,4.161,4.161,0,0,0-1.9-.316h-2.6v4.889Z" transform="translate(-151.502 -260.032)" fill="#fff"/>
</svg>
