<svg id="car" xmlns="http://www.w3.org/2000/svg" width="43.504" height="28.039" viewBox="0 0 43.504 28.039">
  <g id="Group_51" data-name="Group 51">
    <path id="Path_56393" data-name="Path 56393" d="M43.5,101.621A3.828,3.828,0,0,0,39.68,97.8H37.131a3.814,3.814,0,0,0-.964.123L33.7,91H9.808L7.336,97.921a3.814,3.814,0,0,0-.964-.123H3.824A3.824,3.824,0,0,0,2.7,105.275a2.891,2.891,0,0,0-.062.595v13.17h8.072V116.49H32.8v2.549H40.87v-13.17a2.891,2.891,0,0,0-.062-.595A3.83,3.83,0,0,0,43.5,101.621ZM11.6,93.549H31.9L34,99.43a3.806,3.806,0,0,0-.58,1.271,52.17,52.17,0,0,0-11.668-1.2,52.17,52.17,0,0,0-11.668,1.2A3.807,3.807,0,0,0,9.5,99.43ZM4.494,102.9h-.67a1.275,1.275,0,1,1,0-2.549H6.373A1.276,1.276,0,0,1,7.627,101.4,12.666,12.666,0,0,0,4.494,102.9Zm5.788,8.072a2.549,2.549,0,1,1,2.549-2.549A2.549,2.549,0,0,1,10.281,110.967Zm17.418.425H15.8v-2.549H27.7Zm5.523-.425a2.549,2.549,0,1,1,2.549-2.549A2.549,2.549,0,0,1,33.222,110.967ZM39.68,102.9h-.67a12.666,12.666,0,0,0-3.133-1.495,1.276,1.276,0,0,1,1.254-1.054H39.68a1.275,1.275,0,0,1,0,2.549Z" transform="translate(0 -91)" fill="#023047"/>
  </g>
</svg>
