<svg id="Group_13313" data-name="Group 13313" xmlns="http://www.w3.org/2000/svg" width="87.739" height="23.734" viewBox="0 0 87.739 23.734">
  <path id="Path_69892" data-name="Path 69892" d="M249.6,111.211c-.715.758-1.224,2.48-.028,3.219,1.707,1.056,3.94-1.088,3.73-2.677-.264-2-2.672-1.634-3.7-.542m4.044.4a3.058,3.058,0,0,1-1.509,2.933,2.883,2.883,0,0,1-2.563.228,2.177,2.177,0,0,1-.769-3.019c.6-1.145,2.587-2.5,4.13-1.423a1.773,1.773,0,0,1,.712,1.281" transform="translate(-165.93 -91.243)" fill="#fff"/>
  <path id="Path_69893" data-name="Path 69893" d="M251.9,112.754a6.349,6.349,0,0,1-.142.712c.84.42,1.644-.957.142-.712m.769,1.082a5.35,5.35,0,0,0,.37.855,2.483,2.483,0,0,1-.6.028c-.092-.279-.27-.471-.341-.77h-.427c-.053.27-.147.5-.2.77h-.483c.133-.835.32-1.616.483-2.42.581.06,1.34-.15,1.709.17.463.4-.01,1.265-.512,1.367" transform="translate(-167.033 -92.288)" fill="#fff"/>
  <path id="Path_69894" data-name="Path 69894" d="M235.594,88.335s-7.929,7.5-11.043,10.442h8.8c-.3,1.474-.621,2.928-.939,4.385h-15.18l.91-4.24s.963-.849,1.369-1.257c3.083-3.107,6.549-6.07,9.626-9.113h-8.8c.288-1.479.644-2.889.912-4.386,5.031,0,15.2-.005,15.2-.005Z" transform="translate(-152.015 -79.776)" fill="#fff"/>
  <path id="Path_69895" data-name="Path 69895" d="M210.356,80.685c-.275,1.491-.623,2.908-.911,4.385-1.643-.067-3.559-.009-5.155-.028-.505,2-.869,4.462-1.423,6.637-.242.946-.569,2.4-.058,3.161.706,1.051,2.813.951,4.386.768-.254,1.378-.588,2.678-.854,4.045-3.31.9-6.812-.154-8.03-2.478-.746-1.42-.653-3.566-.314-5.382.97-5.194,2.308-10.448,3.246-15.521h4.9c-.337,1.417-.616,2.895-.911,4.357,1.623.066,3.37.009,5.041.028.041,0,.082,0,.086.029" transform="translate(-143.344 -76.265)" fill="#fff"/>
  <path id="Path_69896" data-name="Path 69896" d="M187.256,83.917c-.272,1.484-.636,2.877-.912,4.357-1.993-.244-4.033.055-5.012,1.4a24.209,24.209,0,0,0-1.822,6.409c-.46,2.281-.983,4.587-1.424,6.807h-4.87c.446-2.252,1-4.609,1.481-6.978a46.876,46.876,0,0,1,1.651-6.778,8.407,8.407,0,0,1,3.9-4.528,9.609,9.609,0,0,1,6.92-.712c.04,0,.081-.005.086.029" transform="translate(-132.433 -79.497)" fill="#fff"/>
  <path id="Path_69897" data-name="Path 69897" d="M148.626,88.111a5.28,5.28,0,0,0-2.107,2.706c2.413.067,5.344.009,7.8.028.522-3.354-3.447-4.184-5.7-2.734m9.57,6.721H145.465a4.812,4.812,0,0,0,.2,2.62c1.355,2.824,6.77,1.487,8.686.057.654,1.074,1.287,2.17,1.937,3.247a12.278,12.278,0,0,1-5.07,2.221c-3.365.647-6.782.109-8.572-1.766-1.674-1.752-2.171-4.886-1.653-7.831.757-4.3,3.067-7.741,6.835-9.171,3.2-1.215,7.217-.491,9.17,1.538a6.674,6.674,0,0,1,1.709,4.3,14.391,14.391,0,0,1-.512,4.784" transform="translate(-118.011 -79.534)" fill="#fff"/>
  <path id="Path_69898" data-name="Path 69898" d="M123.017,76.294c-1.695,7.753-3.315,15.577-4.984,23.354h-4.841c.546-2.72,1.126-5.405,1.709-8.089-2.557-.046-5.8-.047-8.544,0-.611,2.663-1.136,5.415-1.738,8.089H99.75c1.6-7.834,3.32-15.552,4.927-23.382H109.6q-1.166,5.412-2.307,10.85c2.782.067,5.687.009,8.516.028.809-3.594,1.558-7.251,2.335-10.879,1.613.019,3.3-.039,4.87.028" transform="translate(-99.75 -76.261)" fill="#fff"/>
</svg>
