<svg xmlns="http://www.w3.org/2000/svg" width="105" height="17" viewBox="0 0 105 17">
  <g id="Group_13249" data-name="Group 13249" transform="translate(-766 -8)">
    <text id="_0472_999_98_99" data-name="0472 999 98 99" transform="translate(789 21)" fill="#fff" font-size="12" font-family="SegoeUI, Segoe UI"><tspan x="0" y="0">0472 999 98 99</tspan></text>
    <g id="phone_4_" data-name="phone (4)" transform="translate(766 9)">
      <g id="Group_13136" data-name="Group 13136" transform="translate(0 0)">
        <path id="Path_71440" data-name="Path 71440" d="M13.656,2.342A8,8,0,1,0,16,8,8,8,0,0,0,13.656,2.342Zm-1.54,8.8h0v0l-.405.4a2.133,2.133,0,0,1-2.013.576A7.089,7.089,0,0,1,7.637,11.2,9.512,9.512,0,0,1,6.013,9.889,9.585,9.585,0,0,1,4.8,8.417a7.466,7.466,0,0,1-.912-1.845,2.133,2.133,0,0,1,.533-2.179L4.9,3.918a.339.339,0,0,1,.479,0h0l1.5,1.5a.339.339,0,0,1,0,.479h0l-.88.88a.717.717,0,0,0-.075.933A10.292,10.292,0,0,0,6.973,8.939,10.229,10.229,0,0,0,8.36,10.1a.723.723,0,0,0,.923-.08l.851-.864a.339.339,0,0,1,.479,0h0l1.5,1.5A.339.339,0,0,1,12.115,11.144Z" transform="translate(0 0)" fill="#fff"/>
      </g>
    </g>
  </g>
</svg>
