<svg xmlns="http://www.w3.org/2000/svg" width="25.144" height="12" viewBox="0 0 13.144 6.656">
  <g id="Group_13273" data-name="Group 13273" transform="translate(-29.2 -46.1)">
    <path id="Path_71698" data-name="Path 71698" d="M39.356,46.1H37.9l-2.445,2.568L34.19,47.346a2.923,2.923,0,1,0-.008,4.142l.008.008,1.261-1.322L37.9,52.756h1.46l-3.187-3.332Zm-5.892,4.654-.008-.008a1.865,1.865,0,0,1-1.33.55,1.888,1.888,0,1,1,0-3.775,1.839,1.839,0,0,1,1.33.55l1.276,1.345Z" transform="translate(0 0)" fill="#fff"/>
    <path id="Path_71699" data-name="Path 71699" d="M143.771,46.1,140.6,49.424l3.171,3.332h1.46l-3.187-3.332,3.187-3.324Z" transform="translate(-102.887 0)" fill="#fff"/>
  </g>
</svg>
