<svg xmlns="http://www.w3.org/2000/svg" width="128.718" height="15.866" viewBox="0 0 128.718 15.866">
  <g id="Group_13248" data-name="Group 13248" transform="translate(-582 -9.093)">
    <path id="facebook" d="M15.866,7.933a7.933,7.933,0,1,0-7.933,7.933c.046,0,.093,0,.139,0V9.69h-1.7V7.7h1.7V6.241a2.387,2.387,0,0,1,2.547-2.618,13.845,13.845,0,0,1,1.528.077V5.472H11.106c-.821,0-.982.39-.982.964V7.7h1.968l-.257,1.986H10.124v5.872A7.935,7.935,0,0,0,15.866,7.933Z" transform="translate(582 9.093)" fill="#fff"/>
    <g id="instagram-sketched" transform="translate(610.213 9.093)">
      <path id="Path_66665" data-name="Path 66665" d="M210.037,208.518A1.518,1.518,0,1,1,208.518,207,1.518,1.518,0,0,1,210.037,208.518Zm0,0" transform="translate(-200.586 -200.586)" fill="#fff"/>
      <path id="Path_66666" data-name="Path 66666" d="M142.77,136.536a1.508,1.508,0,0,0-.865-.865,2.52,2.52,0,0,0-.846-.157c-.48-.022-.624-.027-1.841-.027s-1.36,0-1.841.027a2.522,2.522,0,0,0-.846.157,1.509,1.509,0,0,0-.865.865,2.521,2.521,0,0,0-.157.846c-.022.48-.027.624-.027,1.841s0,1.36.027,1.841a2.52,2.52,0,0,0,.157.846,1.508,1.508,0,0,0,.865.865,2.517,2.517,0,0,0,.846.157c.48.022.624.027,1.841.027s1.361,0,1.841-.027a2.517,2.517,0,0,0,.846-.157,1.508,1.508,0,0,0,.865-.865,2.522,2.522,0,0,0,.157-.846c.022-.48.027-.624.027-1.841s0-1.36-.027-1.841A2.517,2.517,0,0,0,142.77,136.536Zm-3.551,5.026a2.339,2.339,0,1,1,2.339-2.339A2.339,2.339,0,0,1,139.219,141.562Zm2.432-4.224a.547.547,0,1,1,.547-.547A.547.547,0,0,1,141.651,137.338Zm0,0" transform="translate(-131.286 -131.29)" fill="#fff"/>
      <path id="Path_66667" data-name="Path 66667" d="M7.933,0a7.933,7.933,0,1,0,7.933,7.933A7.934,7.934,0,0,0,7.933,0Zm4.528,9.811a3.342,3.342,0,0,1-.212,1.106,2.329,2.329,0,0,1-1.332,1.332,3.344,3.344,0,0,1-1.106.212c-.486.022-.641.027-1.878.027s-1.392-.005-1.878-.027a3.344,3.344,0,0,1-1.106-.212,2.329,2.329,0,0,1-1.332-1.332,3.341,3.341,0,0,1-.212-1.106c-.022-.486-.028-.641-.028-1.878s.005-1.392.027-1.878a3.342,3.342,0,0,1,.212-1.106A2.331,2.331,0,0,1,4.949,3.617a3.345,3.345,0,0,1,1.106-.212c.486-.022.641-.027,1.878-.027s1.392.005,1.878.028a3.346,3.346,0,0,1,1.106.211,2.33,2.33,0,0,1,1.332,1.332,3.342,3.342,0,0,1,.212,1.106c.022.486.027.641.027,1.878S12.483,9.325,12.461,9.811Zm0,0" transform="translate(0 0)" fill="#fff"/>
    </g>
    <path id="twitter" d="M7.933,0a7.933,7.933,0,1,0,7.933,7.933A7.934,7.934,0,0,0,7.933,0Zm3.622,6.185q.005.117.005.235A5.145,5.145,0,0,1,6.379,11.6h0a5.154,5.154,0,0,1-2.791-.818,3.7,3.7,0,0,0,.434.025,3.653,3.653,0,0,0,2.261-.779,1.823,1.823,0,0,1-1.7-1.265,1.815,1.815,0,0,0,.822-.031A1.821,1.821,0,0,1,3.945,6.948c0-.008,0-.016,0-.023a1.808,1.808,0,0,0,.825.228,1.822,1.822,0,0,1-.564-2.431,5.17,5.17,0,0,0,3.753,1.9,1.822,1.822,0,0,1,3.1-1.661,3.652,3.652,0,0,0,1.156-.442,1.828,1.828,0,0,1-.8,1.007,3.631,3.631,0,0,0,1.046-.287,3.7,3.7,0,0,1-.908.943Zm0,0" transform="translate(638.426 9.093)" fill="#fff"/>
    <g id="whatsapp" transform="translate(666.639 9.093)">
      <path id="Path_66668" data-name="Path 66668" d="M7.933,0a7.933,7.933,0,1,0,7.933,7.933A7.934,7.934,0,0,0,7.933,0ZM8.1,12.552h0a4.746,4.746,0,0,1-2.269-.578l-2.517.66.674-2.46A4.748,4.748,0,1,1,8.1,12.552Zm0,0" transform="translate(0 0)" fill="#fff"/>
      <path id="Path_66669" data-name="Path 66669" d="M138.019,124.469a3.947,3.947,0,0,0-3.345,6.044l.094.149-.4,1.456,1.494-.392.144.085a3.94,3.94,0,0,0,2.009.55h0a3.946,3.946,0,0,0,0-7.893Zm2.321,5.641a1.222,1.222,0,0,1-.8.564,1.628,1.628,0,0,1-.747-.047,6.854,6.854,0,0,1-.676-.25,5.288,5.288,0,0,1-2.027-1.791,2.307,2.307,0,0,1-.484-1.227,1.33,1.33,0,0,1,.415-.989.436.436,0,0,1,.316-.148c.079,0,.158,0,.227,0s.171-.028.267.2.336.821.366.88a.219.219,0,0,1,.01.208,3.381,3.381,0,0,1-.3.406c-.053.065-.121.123-.052.242a3.575,3.575,0,0,0,.66.822,3.243,3.243,0,0,0,.954.589c.118.059.188.049.257-.03s.3-.346.376-.465.158-.1.267-.059.692.326.811.386.2.089.227.139a.989.989,0,0,1-.069.564Zm0,0" transform="translate(-129.916 -120.612)" fill="#fff"/>
    </g>
    <g id="youtube" transform="translate(694.852 9.093)">
      <path id="Path_66670" data-name="Path 66670" d="M224.113,211.012l2.58-1.486-2.58-1.486Zm0,0" transform="translate(-217.168 -201.593)" fill="#fff"/>
      <path id="Path_66671" data-name="Path 66671" d="M7.933,0a7.933,7.933,0,1,0,7.933,7.933A7.934,7.934,0,0,0,7.933,0ZM12.89,7.941a13.093,13.093,0,0,1-.2,2.385,1.242,1.242,0,0,1-.874.874,30.151,30.151,0,0,1-3.879.2,29.072,29.072,0,0,1-3.879-.212,1.242,1.242,0,0,1-.874-.874,13.035,13.035,0,0,1-.2-2.384,13.084,13.084,0,0,1,.2-2.384,1.267,1.267,0,0,1,.874-.882,30.151,30.151,0,0,1,3.879-.2,29.01,29.01,0,0,1,3.879.212,1.242,1.242,0,0,1,.874.874,12.425,12.425,0,0,1,.2,2.393Zm0,0" transform="translate(0 0)" fill="#fff"/>
    </g>
  </g>
</svg>
