<svg id="renault" xmlns="http://www.w3.org/2000/svg" width="17.769" height="21.662" viewBox="0 0 17.769 21.662">
  <path id="Path_57275" data-name="Path 57275" d="M63.747,10.747,57.647.085A.169.169,0,0,0,57.5,0H52.269a.169.169,0,0,0-.147.085l-6.1,10.662a.169.169,0,0,0,0,.168l6.1,10.662.012.018h0a.17.17,0,0,0,.049.043.16.16,0,0,0,.065.022l.02,0H57.5a.169.169,0,0,0,.147-.085l6.1-10.662A.169.169,0,0,0,63.747,10.747Zm-11.917.164a.17.17,0,0,1,0-.16l3.055-5.694,3.055,5.694a.17.17,0,0,1,0,.16L54.885,16.6Z" transform="translate(-46 0)" fill="#ccc"/>
  <path id="Path_57276" data-name="Path 57276" d="M295.444,0h-.989l6.2,10.831-6.2,10.831h.989a.169.169,0,0,0,.147-.085l6.1-10.662a.169.169,0,0,0,0-.168L295.59.085A.169.169,0,0,0,295.444,0Z" transform="translate(-283.943 0)" fill="#8c8c8c"/>
  <path id="Path_57277" data-name="Path 57277" d="M57.5.187,57.072.98,55.428,4.045l-.543,1.012-3.055,5.694a.168.168,0,0,0,0,.16L54.884,16.6l-.543,1.012-1.7,3.169h0l-.364.677-.094.175-.005.009a.111.111,0,0,1-.034-.032l-.005-.008-.017-.03-6.1-10.662a.169.169,0,0,1,0-.168L52.122.085A.169.169,0,0,1,52.268,0h5.117A.127.127,0,0,1,57.5.187Z" transform="translate(-45.999 0)" fill="#ccc"/>
  <path id="Path_57278" data-name="Path 57278" d="M57.5.187,57.072.98,55.428,4.045l-.543,1.012-3.055,5.694a.168.168,0,0,0,0,.16L54.884,16.6l-.543,1.012-1.7,3.169h0l-.364.677-.094.175-.005.009a.111.111,0,0,1-.034-.032l-.005-.008-.017-.03-6.1-10.662a.169.169,0,0,1,0-.168L52.122.085A.169.169,0,0,1,52.268,0h5.117A.127.127,0,0,1,57.5.187Z" transform="translate(-45.999 0)" fill="#e3e3e3"/>
  <path id="Path_57279" data-name="Path 57279" d="M163.418,0l-5.769,10.751a.169.169,0,0,0,0,.16l3.6,6.706.543-1.013-3.055-5.694a.169.169,0,0,1,0-.16L164.4.187A.127.127,0,0,0,164.292,0Z" transform="translate(-152.906 0)" fill="#8c8c8c"/>
  <path id="Path_57280" data-name="Path 57280" d="M198.888,102.466l-5.769,10.751h-1.026a.107.107,0,0,1-.053-.014l.005-.009.094-.175.364-.677h0l1.7-3.169.543-1.012,3.055-5.694a.17.17,0,0,0,0-.16l-3.055-5.694.543-1.012,3.6,6.706A.168.168,0,0,1,198.888,102.466Z" transform="translate(-185.861 -91.555)" fill="#a6a6a6"/>
</svg>
