<svg id="volkswagen" xmlns="http://www.w3.org/2000/svg" width="20.825" height="20.825" viewBox="0 0 20.825 20.825">
  <path id="Path_57299" data-name="Path 57299" d="M10.412,0A10.412,10.412,0,1,0,20.825,10.411,10.413,10.413,0,0,0,10.412,0Z" fill="#3e5594"/>
  <path id="Path_57300" data-name="Path 57300" d="M245.623,0c-.147,0-.294,0-.44.01a10.412,10.412,0,0,1,0,20.8c.146.006.293.01.44.01a10.412,10.412,0,0,0,0-20.825Z" transform="translate(-235.211)" fill="#2d3e6c"/>
  <path id="Path_57301" data-name="Path 57301" d="M45.006,53.9a8.947,8.947,0,1,1,8.946-8.947A8.956,8.956,0,0,1,45.006,53.9Z" transform="translate(-34.593 -34.542)" fill="#fff"/>
  <g id="Group_280" data-name="Group 280" transform="translate(2.888 2.888)">
    <path id="Path_57302" data-name="Path 57302" d="M204.827,71.4a.09.09,0,0,1,.057-.123,7.579,7.579,0,0,1,4.031,0,.09.09,0,0,1,.057.123l-1.99,4.411a.09.09,0,0,1-.163,0Z" transform="translate(-199.376 -71)" fill="#2d3e6c"/>
    <path id="Path_57303" data-name="Path 57303" d="M117.224,100.915a7.568,7.568,0,0,1,1.921,1.814.09.09,0,0,1,.01.091l-3.373,7.465a.09.09,0,0,1-.161.005L114.393,108a.09.09,0,0,0-.079-.047h-2.43a.09.09,0,0,0-.079.047l-1.228,2.294a.09.09,0,0,1-.161-.005l-3.369-7.472a.09.09,0,0,1,.01-.091,7.565,7.565,0,0,1,1.915-1.807.09.09,0,0,1,.13.037l2.7,5.736a.09.09,0,0,0,.081.051h2.432a.089.089,0,0,0,.081-.051l2.694-5.736A.09.09,0,0,1,117.224,100.915Z" transform="translate(-105.574 -99.684)" fill="#2d3e6c"/>
    <path id="Path_57304" data-name="Path 57304" d="M71.361,212.671a.09.09,0,0,0-.169.016A7.537,7.537,0,0,0,74.935,221a.09.09,0,0,0,.124-.116Z" transform="translate(-71 -206.858)" fill="#2d3e6c"/>
    <path id="Path_57305" data-name="Path 57305" d="M204.822,324.941a7.577,7.577,0,0,0,4.161,0l-2.079-4.617Z" transform="translate(-199.379 -310.183)" fill="#2d3e6c"/>
    <path id="Path_57306" data-name="Path 57306" d="M341.011,221.281a.09.09,0,0,0,.124.116,7.538,7.538,0,0,0,3.747-8.293.09.09,0,0,0-.169-.016Z" transform="translate(-330.021 -207.258)" fill="#2d3e6c"/>
  </g>
</svg>
